<?xml version="1.0" standalone="no"?><!DOCTYPE svg PUBLIC "-//W3C//DTD SVG 1.1//EN" "http://www.w3.org/Graphics/SVG/1.1/DTD/svg11.dtd"><svg t="1553165356520" class="icon" style="" viewBox="0 0 1024 1024" version="1.1" xmlns="http://www.w3.org/2000/svg" p-id="4939" xmlns:xlink="http://www.w3.org/1999/xlink" width="128" height="128"><defs><style type="text/css"></style></defs><path d="M125.61066667 655.54962963s225.39377778 276.13866667 660.82133333 225.28-313.91288889-211.74044445-313.91288889-211.74044445l-346.90844444-13.53955555z" fill="#F4F4F4" p-id="4940"></path><path d="M579.24266667 284.5202963c79.18933333 124.70044445 31.40266667 296.96-106.72355556 384.56888888S158.37866667 726.66074075 79.18933333 601.84651852s-31.40266667-296.96 106.72355556-384.56888889 314.14044445-57.57155555 393.32977778 67.24266667z" fill="#FE721D" p-id="4941"></path><path d="M596.87822222 459.16918518l-77.25511111-86.4711111-29.12711111 22.86933333s0.79644445 41.07377778 12.74311111 81.46488889c-30.15111111 20.93511111-73.38666667 64.73955555-98.75911111 149.504-255.65866667 36.52266667-353.39377778-230.96888889-353.39377778-230.96888889-19.34222222 69.632-11.49155555 143.92888889 28.10311111 206.27911111 63.60177778 100.23822222 189.89511111 139.264 308.79288889 105.24444445 13.42577778-3.86844445 26.73777778-8.76088889 39.936-14.56355556 2.27555555-0.91022222 4.43733333-2.048 6.59911111-3.072 12.85688889-6.03022222 25.71377778-12.51555555 38.00177778-20.36622223 14.44977778-9.216 27.53422222-19.56977778 39.936-30.37866666 0.91022222-0.79644445 2.048-1.47911111 2.95822222-2.27555555l0.22755556-0.45511112c18.54577778-16.72533333 34.92977778-35.04355555 48.69688889-54.7271111-9.32977778 2.048-20.13866667 4.89244445-32.19911111 8.6471111l16.27022222-45.39733333c35.15733333 11.37777778 48.46933333-85.33333333 48.46933333-85.33333334z" fill="#FB5D08" p-id="4942"></path><path d="M442.48177778 662.49007408a243.25688889 211.28533333 0 1 0 486.51377777 0 243.25688889 211.28533333 0 1 0-486.51377777 0Z" fill="#FE721D" p-id="4943"></path><path d="M499.93955555 798.79585185c44.60088889 45.85244445 111.27466667 75.09333333 185.79911112 75.09333333 128 0 232.78933333-86.016 242.34666666-195.0151111h-9.10222222L868.12444445 697.30607408s-144.61155555 171.23555555-368.1848889 101.48977777z" fill="#FB5D08" p-id="4944"></path><path d="M841.728 692.29985185s97.05244445-24.23466667 130.50311111-107.9751111-18.09066667 147.79733333-104.90311111 140.40177777-25.6-32.42666667-25.6-32.42666667z" fill="#83D763" p-id="4945"></path><path d="M846.848 693.89274075s-18.88711111-98.304 42.89422222-163.84c61.78133333-65.64977778-126.40711111 78.73422222-83.17155555 154.28266666 43.23555555 75.66222222 40.27733333 9.55733333 40.27733333 9.55733334z" fill="#83D763" p-id="4946"></path><path d="M858.112 712.66607408s22.41422222 97.50755555 105.35822222 132.66488889-147.456-20.93511111-138.35377777-107.63377779c8.98844445-86.69866667 32.99555555-25.03111111 32.99555555-25.0311111z" fill="#83D763" p-id="4947"></path><path d="M799.51644445 689.34162963s27.53422222 7.62311111 42.21155555 2.95822222 6.59911111 34.816-31.17511111 39.25333333c-20.93511111-19.11466667-16.72533333-43.46311111-16.72533334-43.4631111l5.6888889 1.25155555z" fill="#72C950" p-id="4948"></path><path d="M886.784 603.43940741s-119.92177778-3.52711111-116.39466667 87.72266667c7.168 37.888 40.16355555 40.39111111 40.16355556 40.3911111s-25.6-34.816 4.43733333-79.18933333c30.03733333-44.37333333 71.79377778-48.92444445 71.79377778-48.92444444z" fill="#83D763" p-id="4949"></path><path d="" fill="#71BD4A" p-id="4950"></path><path d="M524.97066667 332.30696297s131.41333333-58.14044445 158.15111111-184.77511112 10.69511111 213.56088889-114.00533333 224.48355556c-124.58666667 10.92266667-44.14577778-39.70844445-44.14577778-39.70844444z" fill="#83D763" p-id="4951"></path><path d="M532.59377778 333.33096297s-50.85866667-134.37155555 20.36622222-242.34666667-159.51644445 142.336-79.64444445 238.70577778 59.27822222 3.64088889 59.27822223 3.64088889z" fill="#83D763" p-id="4952"></path><path d="M553.18755555 357.11051852s55.63733333 132.55111111 181.58933334 161.792-213.78844445 6.59911111-222.208-118.32888889c-8.41955555-124.81422222 40.61866667-43.46311111 40.61866666-43.46311111z" fill="#83D763" p-id="4953"></path><path d="M464.44088889 338.56474075s40.96 3.98222222 60.52977778-6.25777778 17.97688889 47.55911111-34.47466667 63.14666666C456.24888889 373.49451852 456.24888889 338.10962963 456.24888889 338.10962963l8.192 0.45511112z" fill="#72C950" p-id="4954"></path><path d="M566.84088889 195.54607408s-170.43911111 24.46222222-143.01866667 152.68977777c19.34222222 51.76888889 66.67377778 47.21777778 66.67377778 47.21777778s-44.71466667-43.008-13.19822222-113.09511111c31.744-70.08711111 89.54311111-86.81244445 89.54311111-86.81244444z" fill="#83D763" p-id="4955"></path><path d="M486.38101959 366.9123967a35.84 32.19911111 83.477 1 0 63.9813302-7.31577002 35.84 32.19911111 83.477 1 0-63.9813302 7.31577002Z" fill="#71BD4A" p-id="4956"></path><path d="M372.28088889 225.35585185c3.98222222 22.30044445-20.82133333 45.39733333-55.40977778 51.65511112-34.58844445 6.144-65.87733333-6.82666667-69.85955556-29.12711112s20.82133333-45.39733333 55.40977778-51.6551111 65.87733333 6.82666667 69.85955556 29.1271111zM612.92088889 526.63940741c9.44355555 16.27022222-3.41333333 41.30133333-28.672 55.86488889s-53.36177778 13.19822222-62.80533334-3.072 3.41333333-41.30133333 28.672-55.86488889c25.25866667-14.67733333 53.36177778-13.312 62.80533334 3.072z" fill="#FFA13D" p-id="4957"></path><path d="M557.28564907 599.08920737a11.264 15.47377778 57.6 1 0 26.12988586-16.58252971 11.264 15.47377778 57.6 1 0-26.12988586 16.58252971Z" fill="#FFFFFF" p-id="4958"></path><path d="M272.290304 285.08601989a21.39022222 29.58222222 71.604 1 0 56.14102642-18.67128036 21.39022222 29.58222222 71.604 1 0-56.14102642 18.67128036Z" fill="#FFFFFF" p-id="4959"></path></svg>