<?xml version="1.0" standalone="no"?><!DOCTYPE svg PUBLIC "-//W3C//DTD SVG 1.1//EN" "http://www.w3.org/Graphics/SVG/1.1/DTD/svg11.dtd"><svg t="1553165374407" class="icon" style="" viewBox="0 0 1024 1024" version="1.1" xmlns="http://www.w3.org/2000/svg" p-id="5352" xmlns:xlink="http://www.w3.org/1999/xlink" width="128" height="128"><defs><style type="text/css"></style></defs><path d="M124.36666666 789.6s456.9 102.3 832.4 52.8-301.6-184.2-301.6-184.2L124.36666666 789.6z" fill="#F0F0F0" p-id="5353"></path><path d="M850.96666666 472.2c-3.2-0.7-6.4-1.1-9.8-1.1H138.46666666c-15.3 0-28.9 7.6-38.2 19.7-3.4 4.4-6.2 9.4-8.3 14.8 0.8-5 1.8-10 2.9-14.9l1.8-7.8c28.4-114.5 120.9-198.4 230.7-198.7l139 49.9 384.6 138.1z" fill="#FFE200" p-id="5354"></path><path d="M891.86666666 528.8v208.7c0 31.8-22.7 57.6-50.8 57.6H138.46666666c-28 0-50.8-25.8-50.8-57.6V528.8c0-5.6 0.7-11 2-16.1 6.2-24 25.7-41.5 48.8-41.5h702.7c23.1 0 42.6 17.5 48.8 41.5 1.2 5 1.9 10.5 1.9 16.1z" fill="#FFE53C" p-id="5355"></path><path d="M841.16666666 795.1c28 0 50.8-25.8 50.8-57.6V528.8c0-5.6-0.7-11-2-16.1-20.1 10.1-187 256.3-589.4 282.4h540.6z" fill="#FDE300" p-id="5356"></path><path d="M891.86666666 719v18.4c0 31.8-22.7 57.6-50.8 57.6H138.46666666c-28 0-50.8-25.8-50.8-57.6V719c0 31.8 22.7 57.6 50.8 57.6h702.7c28 0 50.7-25.8 50.7-57.6z" fill="#FFE250" p-id="5357"></path><path d="M889.86666666 512.6H89.66666666c6.2-24 25.7-41.5 48.8-41.5h702.7c23.1 0 42.6 17.5 48.7 41.5z" fill="#FFBA00" p-id="5358"></path><path d="M87.66666666 468.8v2.4-2.4z" fill="#FFDB60" p-id="5359"></path><path d="M88.66666666 471.2v-2.4 2.4z" fill="#FFB400" p-id="5360"></path><path d="M383.46666666 468.5v0.3-0.3zM383.46666666 468.5h3.8v0.3h-3.8z" fill="#FFDB60" p-id="5361"></path><path d="M387.36666666 468.5h3.8v0.3h-3.8z" fill="#FFDA5F" p-id="5362"></path><path d="M391.16666666 468.5h3.8v0.3h-3.8z" fill="#FFDA5E" p-id="5363"></path><path d="M394.96666666 468.5h3.8v0.3h-3.8z" fill="#FFD95D" p-id="5364"></path><path d="M398.86666666 468.5h3.8v0.3h-3.8z" fill="#FFD95C" p-id="5365"></path><path d="M402.66666666 468.5h3.8v0.3H402.66666666z" fill="#FFD85B" p-id="5366"></path><path d="M406.46666666 468.5h3.8v0.3h-3.8z" fill="#FFD859" p-id="5367"></path><path d="M410.26666666 468.5h3.8v0.3h-3.8z" fill="#FFD758" p-id="5368"></path><path d="M414.16666666 468.5h3.8v0.3h-3.8z" fill="#FFD757" p-id="5369"></path><path d="M417.96666666 468.5h3.8v0.3h-3.8z" fill="#FFD656" p-id="5370"></path><path d="M421.76666666 468.5h3.8v0.3h-3.8z" fill="#FFD655" p-id="5371"></path><path d="M425.66666666 468.5h3.8v0.3H425.66666666z" fill="#FFD554" p-id="5372"></path><path d="M429.46666666 468.5h3.8v0.3h-3.8z" fill="#FFD552" p-id="5373"></path><path d="M433.26666666 468.5h3.8v0.3h-3.8z" fill="#FFD451" p-id="5374"></path><path d="M437.06666666 468.5h3.8v0.3h-3.8z" fill="#FFD450" p-id="5375"></path><path d="M440.96666666 468.5h3.8v0.3h-3.8z" fill="#FFD34F" p-id="5376"></path><path d="M444.76666666 468.5h3.8v0.3h-3.8z" fill="#FFD34E" p-id="5377"></path><path d="M448.56666666 468.5h3.8v0.3h-3.8z" fill="#FFD24D" p-id="5378"></path><path d="M452.46666666 468.5h3.8v0.3h-3.8z" fill="#FFD24B" p-id="5379"></path><path d="M456.26666666 468.5h3.8v0.3h-3.8z" fill="#FFD14A" p-id="5380"></path><path d="M460.06666666 468.5h3.8v0.3h-3.8z" fill="#FFD149" p-id="5381"></path><path d="M463.86666666 468.5h3.8v0.3h-3.8z" fill="#FFD048" p-id="5382"></path><path d="M467.76666666 468.5h3.8v0.3h-3.8z" fill="#FFD046" p-id="5383"></path><path d="M471.56666666 468.5h3.8v0.3h-3.8z" fill="#FFCF45" p-id="5384"></path><path d="M475.36666666 468.5h3.8v0.3h-3.8z" fill="#FFCF44" p-id="5385"></path><path d="M479.26666666 468.5h3.8v0.3h-3.8z" fill="#FFCE43" p-id="5386"></path><path d="M483.06666666 468.5h3.8v0.3h-3.8z" fill="#FFCE42" p-id="5387"></path><path d="M486.86666666 468.5h3.8v0.3h-3.8z" fill="#FFCD40" p-id="5388"></path><path d="M490.66666666 468.5h3.8v0.3H490.66666666z" fill="#FFCD3F" p-id="5389"></path><path d="M494.56666666 468.5h3.8v0.3h-3.8z" fill="#FFCC3E" p-id="5390"></path><path d="M498.36666666 468.5h3.8v0.3h-3.8z" fill="#FFCC3C" p-id="5391"></path><path d="M502.16666666 468.5h3.8v0.3h-3.8z" fill="#FFCB3B" p-id="5392"></path><path d="M506.06666666 468.5h3.8v0.3h-3.8z" fill="#FFCB3A" p-id="5393"></path><path d="M509.86666666 468.5h3.8v0.3h-3.8z" fill="#FFCA39" p-id="5394"></path><path d="M513.66666666 468.5h3.8v0.3H513.66666666z" fill="#FFCA37" p-id="5395"></path><path d="M517.46666666 468.5h3.8v0.3h-3.8z" fill="#FFC936" p-id="5396"></path><path d="M521.36666666 468.5h3.8v0.3h-3.8z" fill="#FFC934" p-id="5397"></path><path d="M525.16666666 468.5h3.8v0.3h-3.8z" fill="#FFC833" p-id="5398"></path><path d="M528.96666666 468.5h3.8v0.3h-3.8z" fill="#FFC832" p-id="5399"></path><path d="M532.86666666 468.5h3.8v0.3h-3.8z" fill="#FFC72F" p-id="5400"></path><path d="M536.66666666 468.5h3.8v0.3H536.66666666z" fill="#FFC62E" p-id="5401"></path><path d="M540.46666666 468.5h3.8v0.3h-3.8z" fill="#FFC62C" p-id="5402"></path><path d="M544.26666666 468.5h3.8v0.3h-3.8z" fill="#FFC52B" p-id="5403"></path><path d="M548.16666666 468.5h3.8v0.3h-3.8z" fill="#FFC529" p-id="5404"></path><path d="M551.96666666 468.5h3.8v0.3h-3.8z" fill="#FFC427" p-id="5405"></path><path d="M555.76666666 468.5h3.8v0.3h-3.8z" fill="#FFC426" p-id="5406"></path><path d="M559.56666666 468.5h3.8v0.3h-3.8z" fill="#FFC324" p-id="5407"></path><path d="M563.46666666 468.5h3.8v0.3h-3.8z" fill="#FFC322" p-id="5408"></path><path d="M567.26666666 468.5h3.8v0.3h-3.8z" fill="#FFC221" p-id="5409"></path><path d="M571.06666666 468.5h3.8v0.3h-3.8z" fill="#FFC21F" p-id="5410"></path><path d="M574.96666666 468.5h3.8v0.3h-3.8z" fill="#FFC11D" p-id="5411"></path><path d="M578.76666666 468.5h3.8v0.3h-3.8z" fill="#FFC11B" p-id="5412"></path><path d="M582.56666666 468.5h3.8v0.3h-3.8z" fill="#FFC019" p-id="5413"></path><path d="M586.36666666 468.5h3.8v0.3h-3.8z" fill="#FFC017" p-id="5414"></path><path d="M590.26666666 468.5h3.8v0.3h-3.8z" fill="#FFBF15" p-id="5415"></path><path d="M594.06666666 468.5h3.8v0.3h-3.8z" fill="#FFBF12" p-id="5416"></path><path d="M597.86666666 468.5h3.8v0.3h-3.8z" fill="#FFBE10" p-id="5417"></path><path d="M601.76666666 468.5h3.8v0.3h-3.8z" fill="#FFBE0D" p-id="5418"></path><path d="M605.56666666 468.5h3.8v0.3h-3.8z" fill="#FFBD0A" p-id="5419"></path><path d="M609.36666666 468.5h3.8v0.3h-3.8z" fill="#FFBD06" p-id="5420"></path><path d="M613.16666666 468.5h3.8v0.3h-3.8z" fill="#FFBC03" p-id="5421"></path><path d="M617.06666666 468.5h3.8v0.3h-3.8z" fill="#FFBC00" p-id="5422"></path><path d="M620.86666666 468.5h3.8v0.3h-3.8zM624.66666666 468.5h3.8v0.3H624.66666666z" fill="#FFBB00" p-id="5423"></path><path d="M628.56666666 468.5h3.8v0.3h-3.8zM632.36666666 468.5h3.8v0.3h-3.8z" fill="#FFBA00" p-id="5424"></path><path d="M636.16666666 468.5h3.8v0.3h-3.8zM639.96666666 468.5h3.8v0.3h-3.8z" fill="#FFB900" p-id="5425"></path><path d="M643.86666666 468.5h3.8v0.3h-3.8zM647.66666666 468.5h3.8v0.3H647.66666666z" fill="#FFB800" p-id="5426"></path><path d="M651.46666666 468.5h3.8v0.3h-3.8zM655.36666666 468.5h3.8v0.3h-3.8z" fill="#FFB700" p-id="5427"></path><path d="M659.16666666 468.5h3.8v0.3h-3.8zM662.96666666 468.5h3.8v0.3h-3.8z" fill="#FFB600" p-id="5428"></path><path d="M666.76666666 468.5h3.8v0.3h-3.8zM670.66666666 468.5h3.8v0.3H670.66666666z" fill="#FFB500" p-id="5429"></path><path d="M674.46666666 468.5h3.8v0.3h-3.8zM678.26666666 468.8v-0.3 0.3z" fill="#FFB400" p-id="5430"></path><path d="M88.46666666 580.6h803.5v24.9H88.46666666z" fill="#FFBA00" p-id="5431"></path><path d="M88.46666666 686.7h803.5v24.9H88.46666666z" fill="#FFBA00" p-id="5432"></path><path d="M332.26666666 286.1l4.4 1.6c-100.6 10.2-180.7 83.8-210.7 185.6-9.9 3.1-18.7 9.3-25.3 17.5-3.5 4.4-6.4 9.4-8.6 14.8 0.9-5 1.9-10 3-14.9 0.6-2.6 1.2-5.2 1.9-7.8 29.4-114.5 116.3-198.4 230.4-198.7l4.9 1.9z" fill="#FFF24F" p-id="5433"></path><path d="M510.46666666 538.3c-7.7-6.9-14.7-19.7-21.8-36.2-1.8-4.2-3.7-7.6-5.5-10.1 3.2 2.4 6.6 7.1 9.9 14.7 5.7 13.4 11.4 24.3 17.4 31.6z" fill="#FFF7EA" p-id="5434"></path><path d="M560.26666666 347.6v0.4-0.4z" fill="#FFDB60" p-id="5435"></path><path d="M561.46666666 348v-0.4 0.4z" fill="#FFB400" p-id="5436"></path><path d="M489.06666666 518.9s-10.9-21.7-17.5-15.7 0 127.2-37.6 142.7c-22.5 9.2 6.8-154.1 6.8-154.1s17.3-9.4 20.5-9.7c3.2-0.3 22.2-5.1 21.7-3.9-0.6 1.2 6.5 12.7 6.1 18.2-0.4 5.3 0 22.5 0 22.5z" fill="#873D00" p-id="5437"></path><path d="M411.46666666 302.5c-71.1-22-132.8 11.5-139.4 36.9-9.7 37.1-49.3 24.7-62.6 48.4-13.4 23.8-4.6 57.6 76.5 71.7 81.1 14.1 104.7 2.7 104.6 70.6-0.1 80.7 34.8 144.5 54 103 22.9-49.5 10.4-113.4 10.4-129.2s14.2-29.2 26.8 0c21.4 49.9 41.7 66.5 83.3-5.8 28.6-49.7 104.7 1.4 135.1-50.9 38.8-66.9-74-62.2-98.5-86.9-38.4-38.7-190.2-57.8-190.2-57.8z" fill="#A04B00" p-id="5438"></path><path d="M375.16666666 459.8c-17.9-20.7-68.2-8.3-92.3-0.8 1.1 0.2 2 0.4 3.1 0.6 80.6 14 99.4 3.1 104.5 69.5-0.5-27.2-4-56.3-15.3-69.3z" fill="#BD4F00" p-id="5439"></path><path d="M349.96666666 303.4s-55 6.6-63.5 32.5c-8.4 25.8 6.2 0.8 16.8-4.4 10.7-5.2 15.2-3.1 21.3-6.1 6.2-3-3.8-10 6.5-10.2s8.7 4.8 13.7-3.5c5.2-8.3 15.8-10.1 5.2-8.3z" fill="#FFFFFF" p-id="5440"></path><path d="M237.36666666 398.3s-3.7 33.4 65.2 37.7c68.9 4.3-20.3 0.7-36-18.8-15.7-19.7-25-54.1-29.2-18.9z" fill="#FFFFFF" p-id="5441"></path><path d="M452.36666666 568.7s-0.3 57.7-20.9 64.1c-20.6 6.5 5.2-15.7 6.8-32.1 1.5-16.4 15-48.8 14.1-32z" fill="#FFFFFF" p-id="5442"></path><path d="M274.86666666 448.4c-50.2-13.4-55.9-49.6-54.5-71.1-4.4 2.6-8.2 5.9-10.9 10.7-13.4 23.8-4.6 57.6 76.5 71.7 2.9 0.5 5.6 0.9 8.4 1.4 9.6-1.6 8.9-5.1-19.5-12.7z" fill="#CD5200" p-id="5443"></path><path d="M586.46666666 473.7s-20 1.4-33.3 31.9c-13.3 30.5-26.5-30.8 7.1-36.8 33.6-6 72.7 1.5 55.4 1.8-17.3 0.4-21.8 0.9-29.2 3.1z" fill="#FFFFFF" p-id="5444"></path><path d="M295.80380366 339.911315a7.6 11 64.702 1 0 19.890144-9.401179 7.6 11 64.702 1 0-19.890144 9.401179Z" fill="#FFFFFF" p-id="5445"></path><path d="M695.56666666 442.6c-20.6 57.3-89.7 7.6-118.3 57.3-30.2 52.3-61.4 56.5-77.7 36.7 15.3 13.6 33.5 4.6 60.9-43 28.7-49.8 114.5 6.3 135.1-51" fill="#873D00" p-id="5446"></path><path d="M140.26666666 421.8s24.2-59.8 64-73-22.1 32.3-24.4 53.7c-2.3 21.5-56 68.6-39.6 19.3z" fill="#FFFFFF" p-id="5447"></path><path d="M153.96666666 748.2c-7.6 0-13.9-6.2-13.9-13.9V624.9c0-7.6 6.2-13.9 13.9-13.9 7.6 0 13.9 6.2 13.9 13.9v109.5c0 7.6-6.2 13.8-13.9 13.8z" fill="#FFFFFF" p-id="5448"></path><path d="M153.96666666 584.6c-7.6 0-13.9-6.2-13.9-13.9v-1.5c0-7.6 6.2-13.9 13.9-13.9 7.6 0 13.9 6.2 13.9 13.9v1.5c0 7.6-6.2 13.9-13.9 13.9z" fill="#FFFFFF" p-id="5449"></path><path d="M191.76666666 421c-4.2 8.5-13.2 12.2-20.1 8.5-6.9-3.8-9.1-13.7-4.9-22.1 4.2-8.5 13.2-12.2 20.1-8.5 6.9 3.7 9.1 13.6 4.9 22.1z" fill="#FFFFFF" p-id="5450"></path><path d="M438.96666666 398.9a90.4 11.4 0 1 0 180.8 0 90.4 11.4 0 1 0-180.8 0Z" fill="#873D00" p-id="5451"></path><path d="M554.56666666 351.1m-51.5 0a51.5 51.5 0 1 0 103 0 51.5 51.5 0 1 0-103 0Z" fill="#51C208" p-id="5452"></path><path d="M554.56666666 299.6c-28.4 0-51.5 23-51.5 51.5 0 11.2 3.7 21.5 9.8 30 8.5 6.1 18.8 9.8 30 9.8 28.4 0 51.5-23 51.5-51.5 0-11.2-3.7-21.5-9.8-30-8.5-6.1-18.8-9.8-30-9.8z" fill="#5CD21C" p-id="5453"></path><path d="M595.66666666 332.5s-8.2 0.5-5.1-5.4c11.3-8.3 78-36 68.8-81.5-0.8-5 5.4-4.1 6.5 5.2 1 9.4-8.8 44.5-70.2 81.7z" fill="#4FAD1E" p-id="5454"></path><path d="M512.86666666 381c5.7 4.1 12.3 7 19.5 8.5 10.7-24.2 10.7-60.4 10.7-60.4l-38.5 33.3c1.6 6.9 4.4 13.2 8.3 18.6z" fill="#5BC324" p-id="5455"></path><path d="M458.76666666 316.8m-85.8 0a85.8 85.8 0 1 0 171.6 0 85.8 85.8 0 1 0-171.6 0Z" fill="#F94A43" p-id="5456"></path><path d="M379.36666666 323.6c0-47.4 38.4-85.8 85.8-85.8 23.2 0 44.3 9.3 59.7 24.3-15.7-19-39.5-31.1-66.1-31.1-47.4 0-85.8 38.4-85.8 85.8 0 24.1 10 45.9 26 61.5-12.3-14.9-19.6-33.9-19.6-54.7z" fill="#FFFFFF" p-id="5457"></path><path d="M544.46666666 316.8c0 47.4-38.4 85.8-85.8 85.8-30.3 0-56.9-15.7-72.1-39.4 13.4 8.6 29.3 13.6 46.4 13.6 47.4 0 85.8-38.4 85.8-85.8 0-17.1-5-33-13.6-46.4 23.7 15.3 39.3 41.9 39.3 72.2z" fill="#F2301E" p-id="5458"></path><path d="M583.46666666 238.6s63.1-34 33.3-76.8c0 0-50.4 22.3-33.3 76.8z" fill="#69C23F" p-id="5459"></path><path d="M507.26666666 258.5zM507.26666666 258.5z" fill="#DA2915" p-id="5460"></path><path d="M507.26666666 258.5z" fill="#DA2B17" p-id="5461"></path><path d="M507.26666666 258.5z" fill="#DA2B18" p-id="5462"></path><path d="M507.26666666 258.5z" fill="#DA2C1A" p-id="5463"></path><path d="M507.26666666 258.5z" fill="#D92C1C" p-id="5464"></path><path d="M507.26666666 258.5z" fill="#D92D1D" p-id="5465"></path><path d="M507.26666666 258.5z" fill="#D92D1E" p-id="5466"></path><path d="M507.26666666 258.5z" fill="#D92E20" p-id="5467"></path><path d="M507.26666666 258.5z" fill="#D92F21" p-id="5468"></path><path d="M507.26666666 258.5z" fill="#D92F22" p-id="5469"></path><path d="M507.26666666 258.5z" fill="#D93023" p-id="5470"></path><path d="M507.26666666 258.5z" fill="#D83026" p-id="5471"></path><path d="M507.26666666 258.5z" fill="#D83127" p-id="5472"></path><path d="M507.26666666 258.5z" fill="#D83129" p-id="5473"></path><path d="M507.26666666 258.5z" fill="#D8322A" p-id="5474"></path><path d="M507.26666666 258.5z" fill="#D8332B" p-id="5475"></path><path d="M507.26666666 258.5z" fill="#D8332C" p-id="5476"></path><path d="M507.26666666 258.5z" fill="#D8342D" p-id="5477"></path><path d="M507.26666666 258.5z" fill="#D7342F" p-id="5478"></path><path d="M507.26666666 258.5z" fill="#D73530" p-id="5479"></path><path d="M507.26666666 258.5z" fill="#D73531" p-id="5480"></path><path d="M507.26666666 258.5zM507.26666666 258.5z" fill="#D73632" p-id="5481"></path><path d="M510.06666666 270.9zM510.06666666 270.9z" fill="#DA2915" p-id="5482"></path><path d="M510.06666666 270.9z" fill="#DA2B17" p-id="5483"></path><path d="M510.06666666 270.9z" fill="#DA2B18" p-id="5484"></path><path d="M510.06666666 270.9z" fill="#DA2C1A" p-id="5485"></path><path d="M510.06666666 270.9z" fill="#D92C1C" p-id="5486"></path><path d="M510.06666666 270.9z" fill="#D92D1D" p-id="5487"></path><path d="M510.06666666 270.9z" fill="#D92D1E" p-id="5488"></path><path d="M510.06666666 270.9z" fill="#D92E20" p-id="5489"></path><path d="M510.06666666 270.9z" fill="#D92F21" p-id="5490"></path><path d="M510.06666666 270.9z" fill="#D92F22" p-id="5491"></path><path d="M510.06666666 270.9z" fill="#D93023" p-id="5492"></path><path d="M510.06666666 270.9z" fill="#D83026" p-id="5493"></path><path d="M510.06666666 270.9z" fill="#D83127" p-id="5494"></path><path d="M510.06666666 270.9z" fill="#D83129" p-id="5495"></path><path d="M510.06666666 270.9z" fill="#D8322A" p-id="5496"></path><path d="M510.06666666 270.9z" fill="#D8332B" p-id="5497"></path><path d="M510.06666666 270.9z" fill="#D8332C" p-id="5498"></path><path d="M510.06666666 270.9z" fill="#D8342D" p-id="5499"></path><path d="M510.06666666 270.9z" fill="#D7342F" p-id="5500"></path><path d="M510.06666666 270.9z" fill="#D73530" p-id="5501"></path><path d="M510.06666666 270.9z" fill="#D73531" p-id="5502"></path><path d="M510.06666666 270.9zM510.06666666 270.9z" fill="#D73632" p-id="5503"></path><path d="M510.03427266 270.925166a10.7 6.8 44.991 1 0 9.615142-9.618163 10.7 6.8 44.991 1 0-9.615142 9.618163Z" fill="#E4190D" p-id="5504"></path><path d="M512.26666666 259.9s-0.8 12.3 8 7.6c12.5-16.8 50.4-115.7 122.9-101.7 7.5 1.3 6.1-8-7.7-9.7-14.1-1.7-66.7 12.5-123.2 103.8z" fill="#4FAD1E" p-id="5505"></path><path d="M402.71010166 285.156437a9.1 17.8 52.807 1 0 28.359095-21.520264 9.1 17.8 52.807 1 0-28.359095 21.520264Z" fill="#FFFFFF" p-id="5506"></path><path d="M425.82190966 275.505041a5.2 7.1 52.807 1 0 11.311774-8.583925 5.2 7.1 52.807 1 0-11.311774 8.583925Z" fill="#FFFFFF" p-id="5507"></path><path d="M547.44969266 316.922605a4.2 8.2 72.176 1 0 15.612821-5.019943 4.2 8.2 72.176 1 0-15.612821 5.019943Z" fill="#FFFFFF" p-id="5508"></path><path d="M559.29014466 317.18315a3.3 4.5 72.176 1 0 8.568012-2.754847 3.3 4.5 72.176 1 0-8.568012 2.754847Z" fill="#FFFFFF" p-id="5509"></path></svg>