<?xml version="1.0" standalone="no"?><!DOCTYPE svg PUBLIC "-//W3C//DTD SVG 1.1//EN" "http://www.w3.org/Graphics/SVG/1.1/DTD/svg11.dtd"><svg t="1553165366350" class="icon" style="" viewBox="0 0 1024 1024" version="1.1" xmlns="http://www.w3.org/2000/svg" p-id="5101" xmlns:xlink="http://www.w3.org/1999/xlink" width="128" height="128"><defs><style type="text/css"></style></defs><path d="M281.8 890.7c37.6 42.4 444.5 88.3 547.9 36.7 108.8-20.6-151.7-145-267.1-132.7s-228.8-82-239.9-60.2c-11 21.9-78.5 113.8-40.9 156.2z" fill="#F0F0F0" p-id="5102"></path><path d="M190.9 301.1l61.9 514.7h0.4c0 34.9 102.9 63.1 229.9 63.1S713 850.6 713 815.8h0.4l61.9-514.7H190.9z" fill="#ED593F" p-id="5103"></path><path d="M246.9 363.8l67.4 502.4-25.9-16.4L220 356.4zM507.2 878.9l31.8-2 23.8-580.3h-36.6zM307.2 296.6L354.5 867h32.9l-51.5-570.4zM403.4 296.6l23.8 580.3 31.4 2-18.9-582.3zM727.7 296.6l-71.8 582.3h25.5c0.4 0 0.7-0.1 1.1-0.1l71.2-582.2h-26zM630.3 296.6l-52.2 576.7 33.3-5.1L659 296.6z" fill="#FFBB36" p-id="5104"></path><path d="M300.2 627c-5.8 0.7-11-3.5-11.6-9.2l-20.9-182.6c-0.7-5.8 3.5-11 9.2-11.6 5.8-0.7 11 3.5 11.6 9.2l20.9 182.6c0.7 5.7-3.4 10.9-9.2 11.6zM274.3 410.6c-5.8 0.7-11-3.5-11.6-9.2-0.7-5.8 3.5-11 9.2-11.6 5.8-0.7 11 3.5 11.6 9.2 0.7 5.8-3.4 11-9.2 11.6z" fill="#FFFFFF" p-id="5105"></path><path d="M713 815.8h0.4l38-316.3c-69.2 148.1-222.6 398.2-462.1 350.3 40.9 17.5 112.3 29.1 193.7 29.1 127.1 0 230-28.3 230-63.1z" fill="#E24828" p-id="5106"></path><path d="M507.2 878.6c10.9-0.3 21.5-0.8 31.9-1.5l3.8-92.8c-10.8 8.3-21.9 16.1-33.4 23.3l-2.3 71zM354.8 868.1c10.5 1.9 21.6 3.7 33.3 5.1l-1.8-20.1c-10.6 1.4-21.4 2.4-32.5 2.6l1 12.4z" fill="#F68800" p-id="5107"></path><path d="M313.8 375.8c9.5 1.3 19.4 2.4 29.6 3.5l-7.1-78.1h-28.7l6.2 74.6z" fill="#FFA921" p-id="5108"></path><path d="M427.1 877c10.2 0.7 20.8 1.2 31.5 1.5l-1.4-44.2c-10.2 4.1-20.7 7.7-31.4 10.7l1.3 32zM686.5 845.2l35-286c-10 18.6-21.1 37.8-33.2 57l-29.6 240.2c10.6-3.3 20-7.1 27.8-11.2zM611.4 868.2L625.1 704c-11.1 13.3-22.9 26.1-35.1 38.5l-11.9 130.8c11.6-1.5 22.8-3.2 33.3-5.1z" fill="#F68800" p-id="5109"></path><path d="M220 356.4c8.1 2.6 17.1 5.1 26.9 7.4l-7.7-62.7h-25.9l6.7 55.3z" fill="#FFA921" p-id="5110"></path><path d="M172.3 295a310.9 63.1 0 1 0 621.8 0 310.9 63.1 0 1 0-621.8 0Z" fill="#FFD782" p-id="5111"></path><path d="M794.1 295v-25.8l-18.7 15.7zM172.3 295v-25.8l18.7 21.6z" fill="#FFD782" p-id="5112"></path><path d="M172.3 269.2a310.9 63.1 0 1 0 621.8 0 310.9 63.1 0 1 0-621.8 0Z" fill="#FFFBD3" p-id="5113"></path><path d="M191 266.4a292.2 56.5 0 1 0 584.4 0 292.2 56.5 0 1 0-584.4 0Z" fill="#E7DD7B" p-id="5114"></path><path d="M236.8 210.2c3.1 0 6.1 0.4 8.9 1.2 3.3-15.8 17.3-27.7 34.1-27.7 19.2 0 34.8 15.6 34.8 34.8 0 9.8-4 18.6-10.5 24.9 6.5 6.3 10.5 15.2 10.5 24.9 0 19.2-15.6 34.8-34.8 34.8-15.7 0-29-10.4-33.3-24.7-3.1 0.9-6.3 1.4-9.7 1.4-19.2 0-34.8-15.6-34.8-34.8s15.6-34.8 34.8-34.8z" fill="#FBC900" p-id="5115"></path><path d="M236.8 210.2c3.1 0 6.1 0.4 8.9 1.2 3.3-15.8 17.3-27.7 34.1-27.7 11.6 0 21.9 5.7 28.2 14.4-5.8-4.2-12.8-6.7-20.5-6.7-16.8 0-30.8 11.9-34.1 27.7-2.8-0.8-5.8-1.2-8.9-1.2-19.2 0-34.8 15.6-34.8 34.8 0 7.7 2.5 14.7 6.7 20.5-8.7-6.3-14.4-16.6-14.4-28.2 0-19.2 15.6-34.8 34.8-34.8z" fill="#FAE9A4" p-id="5116"></path><path d="M598.7 249.6c3.1 0 6.1 0.4 8.9 1.2 3.3-15.8 17.3-27.7 34.1-27.7 19.2 0 34.8 15.6 34.8 34.8 0 9.8-4 18.6-10.5 24.9 6.5 6.3 10.5 15.2 10.5 24.9 0 19.2-15.6 34.8-34.8 34.8-15.7 0-29-10.4-33.3-24.7-3.1 0.9-6.3 1.4-9.7 1.4-19.2 0-34.8-15.6-34.8-34.8 0-19.2 15.6-34.8 34.8-34.8z" fill="#FBC900" p-id="5117"></path><path d="M598.7 249.6c3.1 0 6.1 0.4 8.9 1.2 3.3-15.8 17.3-27.7 34.1-27.7 11.6 0 21.9 5.7 28.2 14.4-5.8-4.2-12.8-6.7-20.5-6.7-16.8 0-30.8 11.9-34.1 27.7-2.8-0.8-5.8-1.2-8.9-1.2-19.2 0-34.8 15.6-34.8 34.8 0 7.7 2.5 14.7 6.7 20.5-8.7-6.3-14.4-16.6-14.4-28.2 0-19.2 15.6-34.8 34.8-34.8z" fill="#FAE9A4" p-id="5118"></path><path d="M658.1 209.8c3.2 0 6.4 0.4 9.3 1.2 3.5-16.5 18.1-29 35.7-29 20.1 0 36.5 16.3 36.5 36.5 0 10.2-4.2 19.5-11 26.1 6.8 6.6 11 15.9 11 26.1 0 20.1-16.3 36.5-36.5 36.5-16.5 0-30.4-10.9-34.9-25.9-3.2 0.9-6.6 1.4-10.1 1.4-20.1 0-36.5-16.3-36.5-36.5s16.3-36.4 36.5-36.4z" fill="#FBC900" p-id="5119"></path><path d="M621.6 266l6.6 9.8h-6.6z" fill="#FBD54B" p-id="5120"></path><path d="M621.6 262l9.4 13.8h-2.8l-6.6-9.8z" fill="#FBD54B" p-id="5121"></path><path d="M621.6 258l12.1 17.8H631l-9.4-13.8z" fill="#FBD54A" p-id="5122"></path><path d="M621.6 253.9l14.8 21.9h-2.7L621.6 258z" fill="#FBD449" p-id="5123"></path><path d="M621.6 249.9l17.6 25.9h-2.8l-14.8-21.9z" fill="#FBD448" p-id="5124"></path><path d="M621.6 245.8l19.8 29.1-1.2 0.9h-1l-17.6-25.9z" fill="#FAD446" p-id="5125"></path><path d="M621.6 241.8l21.7 31.9-1.9 1.2-19.8-29.1z" fill="#FAD445" p-id="5126"></path><path d="M621.6 237.8l23.5 34.6-1.8 1.3-21.7-31.9z" fill="#FAD444" p-id="5127"></path><path d="M621.6 233.7l25.4 37.4-1.9 1.3-23.5-34.6z" fill="#FAD343" p-id="5128"></path><path d="M621.6 229.7l27.3 40.1-1.9 1.3-25.4-37.4z" fill="#FAD342" p-id="5129"></path><path d="M621.6 225.7l29.2 42.8-1.9 1.3-27.3-40.1z" fill="#FAD341" p-id="5130"></path><path d="M621.6 221.6l31 45.7-1.8 1.2-29.2-42.8z" fill="#F9D340" p-id="5131"></path><path d="M621.6 218.5l0.4-0.3 32.5 47.8-1.9 1.3-31-45.7z" fill="#F9D23F" p-id="5132"></path><path d="M621.986056 218.150169l1.901405-1.294087 32.520952 47.783132-1.901405 1.294087z" fill="#F9D23D" p-id="5133"></path><path d="M623.84346 216.980537l1.901405-1.294086 32.520952 47.783132-1.901405 1.294086z" fill="#F9D23C" p-id="5134"></path><path d="M625.72727 215.671972l1.901404-1.294086 32.520952 47.783132-1.901405 1.294086z" fill="#F9D23B" p-id="5135"></path><path d="M627.611252 214.363969l1.901405-1.294086 32.520952 47.783132-1.901405 1.294086z" fill="#F9D13A" p-id="5136"></path><path d="M629.495451 213.054667l1.901404-1.294086 32.520952 47.783132-1.901405 1.294086z" fill="#F9D139" p-id="5137"></path><path d="M631.434962 211.828945l1.901405-1.294086L665.857318 258.317991l-1.901405 1.294086z" fill="#F8D138" p-id="5138"></path><path d="M633.236274 210.577207l1.901405-1.294087 32.520952 47.783132-1.901405 1.294087z" fill="#F8D137" p-id="5139"></path><path d="M635.120083 209.268641l1.901405-1.294086 32.520952 47.783132-1.901405 1.294086z" fill="#F8D036" p-id="5140"></path><path d="M637.003893 207.960076l1.901404-1.294087 32.520952 47.783132-1.901405 1.294087z" fill="#F8D035" p-id="5141"></path><path d="M638.888264 206.651337l1.901405-1.294087 32.520952 47.783132L671.409216 254.434469z" fill="#F8D033" p-id="5142"></path><path d="M640.745668 205.481706l1.901405-1.294087 32.520952 47.783132-1.901405 1.294086z" fill="#F8D032" p-id="5143"></path><path d="M642.629477 204.17314l1.901405-1.294086 32.520952 47.783132-1.901405 1.294086z" fill="#F7CF31" p-id="5144"></path><path d="M644.513287 202.864574l1.901404-1.294086L678.935643 249.35362l-1.901405 1.294086z" fill="#F7CF30" p-id="5145"></path><path d="M646.397096 201.556009l1.901405-1.294087 32.520951 47.783132-1.901405 1.294087z" fill="#F7CF2F" p-id="5146"></path><path d="M648.337169 200.330113l1.901405-1.294086 32.520952 47.783132-1.901405 1.294086z" fill="#F7CF2E" p-id="5147"></path><path d="M650.138309 199.077812l1.901405-1.294086 32.520951 47.783132-1.901404 1.294086z" fill="#F7CE2D" p-id="5148"></path><path d="M652.022118 197.769247l1.901405-1.294087 32.520952 47.783132-1.901405 1.294086z" fill="#F7CE2C" p-id="5149"></path><path d="M653.905927 196.460681l1.901405-1.294086 32.520952 47.783132L686.426879 244.243813z" fill="#F7CE2B" p-id="5150"></path><path d="M655.789736 195.152115l1.901405-1.294086 32.520952 47.783132-1.901405 1.294086z" fill="#F6CE2A" p-id="5151"></path><path d="M657.647313 193.983047l1.901405-1.294086 32.520952 47.783131-1.901405 1.294087z" fill="#F6CD29" p-id="5152"></path><path d="M659.531123 192.674481l1.901405-1.294086 32.520951 47.783132-1.901405 1.294086z" fill="#F6CD28" p-id="5153"></path><path d="M661.414932 191.365916l1.901405-1.294087 32.520951 47.783132-1.901405 1.294087z" fill="#F6CD26" p-id="5154"></path><path d="M663.298741 190.05735l1.901405-1.294086 32.520952 47.783132-1.901405 1.294086z" fill="#F6CD25" p-id="5155"></path><path d="M665.238815 188.831454l1.901405-1.294086L699.661171 235.3205l-1.901405 1.294086z" fill="#F6CD24" p-id="5156"></path><path d="M667.040127 187.579716l1.901405-1.294086 32.520952 47.783132-1.901405 1.294086z" fill="#F6CC23" p-id="5157"></path><path d="M668.923763 186.270588l1.901405-1.294086 32.520952 47.783131L701.444715 234.05372z" fill="#F5CC22" p-id="5158"></path><path d="M670.807572 184.962022l1.901405-1.294086 32.520952 47.783132-1.901405 1.294086z" fill="#F5CC21" p-id="5159"></path><path d="M672.691381 183.653457l1.901405-1.294087 32.520952 47.783132-1.901405 1.294087z" fill="#F5CC20" p-id="5160"></path><path d="M674.6 182.4l0.5-0.4h2l31.9 46.9-1.9 1.3z" fill="#F5CB1F" p-id="5161"></path><path d="M679.8 182l31.1 45.6-1.9 1.3-31.9-46.9z" fill="#F5CB1E" p-id="5162"></path><path d="M682.6 182l30.1 44.4-1.8 1.2-31.1-45.6z" fill="#F5CB1D" p-id="5163"></path><path d="M685.3 182l29.3 43.1-1.9 1.3-30.1-44.4z" fill="#F5CB1C" p-id="5164"></path><path d="M688.1 182l28.4 41.8-1.9 1.3-29.3-43.1z" fill="#F4CA1B" p-id="5165"></path><path d="M690.8 182l27.6 40.5-1.9 1.3-28.4-41.8z" fill="#F4CA1A" p-id="5166"></path><path d="M693.6 182l26.7 39.3-1.9 1.2-27.6-40.5z" fill="#F4CA19" p-id="5167"></path><path d="M696.3 182l25.8 38-1.8 1.3-26.7-39.3z" fill="#F4CA18" p-id="5168"></path><path d="M699.1 182l24.9 36.7-1.9 1.3-25.8-38z" fill="#F4CA17" p-id="5169"></path><path d="M701.8 182l24.1 35.4-1.9 1.3-24.9-36.7z" fill="#F4C916" p-id="5170"></path><path d="M704.6 182l23.2 34.1-1.9 1.3-24.1-35.4z" fill="#F4C915" p-id="5171"></path><path d="M707.3 182l22.3 32.9-1.8 1.2-23.2-34.1z" fill="#F3C914" p-id="5172"></path><path d="M710.1 182l21.4 31.6-1.9 1.3-22.3-32.9z" fill="#F3C913" p-id="5173"></path><path d="M712.8 182l19.8 29.1v1.8l-1.1 0.7-21.4-31.6z" fill="#F3C912" p-id="5174"></path><path d="M715.6 182l17 25.1v4L712.8 182z" fill="#F3C811" p-id="5175"></path><path d="M718.3 182l14.3 21v4.1l-17-25.1z" fill="#F3C810" p-id="5176"></path><path d="M721.1 182l11.5 17v4l-14.3-21z" fill="#F3C80F" p-id="5177"></path><path d="M723.8 182l8.8 13v4l-11.5-17z" fill="#F3C80E" p-id="5178"></path><path d="M726.5 182l6.1 8.9v4.1l-8.8-13z" fill="#F3C80D" p-id="5179"></path><path d="M729.3 182l3.3 4.9v4l-6.1-8.9z" fill="#F2C70D" p-id="5180"></path><path d="M732 182l0.6 0.8v4.1l-3.3-4.9z" fill="#F2C70C" p-id="5181"></path><path d="M732.6 182.8l-0.6-0.8h0.6z" fill="#F2C70B" p-id="5182"></path><path d="M483.2 273c2.7-1.4 5.6-2.5 8.4-3.2-4.5-15.5 2.3-32.6 17.2-40.4 17-9 38.1-2.5 47.1 14.5 4.6 8.6 5.2 18.3 2.4 26.9 8.7 2.6 16.4 8.5 20.9 17.1 9 17 2.5 38.1-14.5 47.1-13.9 7.4-30.5 4.4-41-6.2-2.3 2.2-4.9 4.2-7.9 5.7-17 9-38.1 2.5-47.1-14.5s-2.6-38 14.5-47z" fill="#FBE06D" p-id="5183"></path><path d="M483.2 273c2.7-1.4 5.6-2.5 8.4-3.2-4.5-15.5 2.3-32.6 17.2-40.4 10.2-5.4 22-5.2 31.6-0.5-7-1-14.5 0.1-21.2 3.7-14.8 7.9-21.6 24.9-17.2 40.4-2.9 0.7-5.7 1.7-8.4 3.2-17 9-23.5 30.1-14.5 47.1 3.6 6.8 9.1 11.9 15.5 15-10.7-1.5-20.5-7.9-25.9-18.2-9-17-2.6-38.1 14.5-47.1z" fill="#FAE9A4" p-id="5184"></path><path d="M301.2 193c3.1 0 6.1 0.4 8.9 1.2 3.3-15.8 17.3-27.7 34.1-27.7 19.2 0 34.8 15.6 34.8 34.8 0 9.8-4 18.6-10.5 24.9 6.5 6.3 10.5 15.2 10.5 24.9 0 19.2-15.6 34.8-34.8 34.8-15.7 0-29-10.4-33.3-24.7-3.1 0.9-6.3 1.4-9.7 1.4-19.2 0-34.8-15.6-34.8-34.8s15.5-34.8 34.8-34.8z" fill="#FBC900" p-id="5185"></path><path d="M301.2 193c3.1 0 6.1 0.4 8.9 1.2 3.3-15.8 17.3-27.7 34.1-27.7 11.6 0 21.9 5.7 28.2 14.4-5.8-4.2-12.8-6.7-20.5-6.7-16.8 0-30.8 11.9-34.1 27.7-2.8-0.8-5.8-1.2-8.9-1.2-19.2 0-34.8 15.6-34.8 34.8 0 7.7 2.5 14.7 6.7 20.5-8.7-6.3-14.4-16.6-14.4-28.2-0.1-19.2 15.5-34.8 34.8-34.8z" fill="#FAE9A4" p-id="5186"></path><path d="M320.9 252.8c3.1 0 6.1 0.4 8.9 1.2 3.3-15.8 17.3-27.7 34.1-27.7 19.2 0 34.8 15.6 34.8 34.8 0 9.8-4 18.6-10.5 24.9 6.5 6.3 10.5 15.2 10.5 24.9 0 19.2-15.6 34.8-34.8 34.8-15.7 0-29-10.4-33.3-24.7-3.1 0.9-6.3 1.4-9.7 1.4-19.2 0-34.8-15.6-34.8-34.8 0-19.2 15.6-34.8 34.8-34.8z" fill="#FBE06D" p-id="5187"></path><path d="M320.9 252.8c3.1 0 6.1 0.4 8.9 1.2 3.3-15.8 17.3-27.7 34.1-27.7 11.6 0 21.9 5.7 28.2 14.4-5.8-4.2-12.8-6.7-20.5-6.7-16.8 0-30.8 11.9-34.1 27.7-2.8-0.8-5.8-1.2-8.9-1.2-19.2 0-34.8 15.6-34.8 34.8 0 7.7 2.5 14.7 6.7 20.5-8.7-6.3-14.4-16.6-14.4-28.2 0-19.2 15.6-34.8 34.8-34.8z" fill="#FAE9A4" p-id="5188"></path><path d="M405 158.5c3-0.8 6-1.1 8.9-1.1-0.8-16.1 9.8-31.1 26.1-35.3 18.6-4.8 37.7 6.3 42.5 25 2.5 9.5 0.8 19-3.9 26.8 7.9 4.5 14 12 16.4 21.5 4.8 18.6-6.3 37.7-25 42.5-15.2 3.9-30.7-2.8-38.5-15.5-2.8 1.6-5.8 2.9-9 3.8-18.6 4.8-37.7-6.3-42.5-25s6.3-37.9 25-42.7z" fill="#FBC900" p-id="5189"></path><path d="M405 158.5c3-0.8 6-1.1 8.9-1.1-0.8-16.1 9.8-31.1 26.1-35.3 11.2-2.9 22.6 0 30.9 6.8-6.6-2.6-14.1-3.2-21.5-1.3-16.2 4.2-26.8 19.2-26.1 35.3-2.9 0-5.9 0.3-8.9 1.1-18.6 4.8-29.8 23.9-25 42.5 1.9 7.4 6.1 13.6 11.6 18.2-10-3.9-18.1-12.5-21-23.7-4.9-18.7 6.3-37.7 25-42.5z" fill="#FAE9A4" p-id="5190"></path><path d="M505.8 144.3c3.5 0 6.9 0.5 10.1 1.3 3.7-17.9 19.6-31.3 38.6-31.3 21.8 0 39.4 17.6 39.4 39.4 0 11-4.6 21-11.9 28.2 7.3 7.2 11.9 17.1 11.9 28.2 0 21.8-17.6 39.4-39.4 39.4-17.8 0-32.8-11.8-37.7-27.9-3.5 1-7.2 1.6-11 1.6-21.8 0-39.4-17.6-39.4-39.4s17.7-39.5 39.4-39.5z" fill="#FBC900" p-id="5191"></path><path d="M505.8 144.3c3.5 0 6.9 0.5 10.1 1.3 3.7-17.9 19.6-31.3 38.6-31.3 13.1 0 24.7 6.4 31.9 16.2-6.5-4.7-14.5-7.5-23.2-7.5-19 0-34.8 13.4-38.6 31.3-3.2-0.9-6.6-1.3-10.1-1.3-21.8 0-39.4 17.6-39.4 39.4 0 8.7 2.8 16.7 7.5 23.2-9.8-7.2-16.2-18.8-16.2-31.9 0-21.7 17.7-39.4 39.4-39.4z" fill="#FAE9A4" p-id="5192"></path><path d="M592.1 166.6c3.1 0 6.1 0.4 8.9 1.2 3.3-15.8 17.3-27.7 34.1-27.7 19.2 0 34.8 15.6 34.8 34.8 0 9.8-4 18.6-10.5 24.9 6.5 6.3 10.5 15.2 10.5 24.9 0 19.2-15.6 34.8-34.8 34.8-15.7 0-29-10.4-33.3-24.7-3.1 0.9-6.3 1.4-9.7 1.4-19.2 0-34.8-15.6-34.8-34.8s15.5-34.8 34.8-34.8z" fill="#FBE06D" p-id="5193"></path><path d="M592.1 166.6c3.1 0 6.1 0.4 8.9 1.2 3.3-15.8 17.3-27.7 34.1-27.7 11.6 0 21.9 5.7 28.2 14.4-5.8-4.2-12.8-6.7-20.5-6.7-16.8 0-30.8 11.9-34.1 27.7-2.8-0.8-5.8-1.2-8.9-1.2-19.2 0-34.8 15.6-34.8 34.8 0 7.7 2.5 14.7 6.7 20.5-8.7-6.3-14.4-16.6-14.4-28.2-0.1-19.2 15.5-34.8 34.8-34.8z" fill="#FAE9A4" p-id="5194"></path><path d="M423.9 226.3c3.1 0 6.1 0.4 8.9 1.2 3.3-15.8 17.3-27.7 34.1-27.7 19.2 0 34.8 15.6 34.8 34.8 0 9.8-4 18.6-10.5 24.9 6.5 6.3 10.5 15.2 10.5 24.9 0 19.2-15.6 34.8-34.8 34.8-15.7 0-29-10.4-33.3-24.7-3.1 0.9-6.3 1.4-9.7 1.4-19.2 0-34.8-15.6-34.8-34.8 0-19.2 15.6-34.8 34.8-34.8z" fill="#FBE06D" p-id="5195"></path><path d="M423.9 226.3c3.1 0 6.1 0.4 8.9 1.2 3.3-15.8 17.3-27.7 34.1-27.7 11.6 0 21.9 5.7 28.2 14.4-5.8-4.2-12.8-6.7-20.5-6.7-16.8 0-30.8 11.9-34.1 27.7-2.8-0.8-5.8-1.2-8.9-1.2-19.2 0-34.8 15.6-34.8 34.8 0 7.7 2.5 14.7 6.7 20.5-8.7-6.3-14.4-16.6-14.4-28.2 0-19.2 15.6-34.8 34.8-34.8z" fill="#FAE9A4" p-id="5196"></path><path d="M279.291631 215.370624a6.3 9.5 63.508 1 0 17.004936-8.475384 6.3 9.5 63.508 1 0-17.004936 8.475384Z" fill="#FFFFFF" p-id="5197"></path><path d="M299.779559 275.259342a6.3 9.5 63.508 1 0 17.004937-8.475384 6.3 9.5 63.508 1 0-17.004937 8.475384Z" fill="#FFFFFF" p-id="5198"></path><path d="M234.2 812.5c3.1-0.2 6.1 0.1 9 0.6 2.4-16 15.7-28.6 32.5-29.6 19.2-1.1 35.7 13.6 36.8 32.8 0.6 9.8-2.9 18.8-9 25.5 6.8 5.9 11.4 14.5 11.9 24.3 1.1 19.2-13.6 35.7-32.8 36.8-15.7 0.9-29.6-8.7-34.7-22.7-3 1.1-6.2 1.7-9.6 1.9-19.2 1.1-35.7-13.6-36.8-32.8-1.2-19.2 13.5-35.6 32.7-36.8z" fill="#FBC900" p-id="5199"></path><path d="M234.2 812.5c3.1-0.2 6.1 0.1 9 0.6 2.4-16 15.7-28.6 32.5-29.6 11.6-0.7 22.1 4.4 29 12.7-6-3.8-13.2-5.9-20.8-5.5-16.8 1-30.1 13.6-32.5 29.6-2.9-0.6-5.9-0.8-9-0.6-19.2 1.1-33.9 17.6-32.8 36.8 0.4 7.6 3.3 14.6 7.8 20.1-9.1-5.8-15.3-15.7-16-27.3-1.1-19.2 13.6-35.6 32.8-36.8z" fill="#FAE9A4" p-id="5200"></path><path d="M602 836.4c2.7-1.4 5.6-2.4 8.5-3-4.2-15.6 2.8-32.5 17.8-40.1 17.1-8.8 38.1-2 46.9 15.2 4.4 8.7 4.9 18.4 2 27 8.6 2.7 16.2 8.7 20.7 17.4 8.8 17.1 2 38.1-15.2 46.9-14 7.1-30.6 3.9-40.9-6.8-2.3 2.2-5 4.1-8 5.6-17.1 8.8-38.1 2-46.9-15.2-8.9-17.3-2.1-38.2 15.1-47z" fill="#FBC900" p-id="5201"></path><path d="M602 836.4c2.7-1.4 5.6-2.4 8.5-3-4.2-15.6 2.8-32.5 17.8-40.1 10.3-5.3 22-4.9 31.6 0-7-1.1-14.5-0.1-21.3 3.4-14.9 7.6-22 24.6-17.8 40.1-2.9 0.6-5.7 1.6-8.5 3-17.1 8.8-23.9 29.7-15.2 46.9 3.5 6.8 8.9 12 15.2 15.2-10.6-1.7-20.3-8.2-25.6-18.6-8.7-17.2-1.9-38.1 15.3-46.9z" fill="#FAE9A4" p-id="5202"></path><path d="M710.1 797.6c3.3 1 6.4 2.3 9.2 4 8.5-15.8 27.1-24.1 45-18.9 20.5 6 32.3 27.5 26.3 48-3 10.4-10.1 18.6-19 23.3 4.9 8.8 6.5 19.4 3.4 29.8-6 20.5-27.5 32.3-48 26.3-16.8-4.9-27.7-20.1-27.9-36.7-3.6 0-7.2-0.5-10.8-1.6-20.5-6-32.3-27.5-26.3-48 6.1-20.4 27.6-32.2 48.1-26.2z" fill="#FBC900" p-id="5203"></path><path d="M710.1 797.6c3.3 1 6.4 2.3 9.2 4 8.5-15.8 27.1-24.1 45-18.9 12.4 3.6 21.5 12.8 25.6 24.1-4.8-6.3-11.6-11.1-19.8-13.5-17.9-5.2-36.5 3.1-45 18.9-2.8-1.7-5.9-3.1-9.2-4-20.5-6-42 5.8-48 26.3-2.4 8.2-1.9 16.5 0.7 23.9-7.3-9.5-10.1-22.2-6.5-34.5 6-20.5 27.5-32.3 48-26.3z" fill="#FAE9A4" p-id="5204"></path><path d="M665.5 889.1c2.8-1.2 5.6-1.9 8.5-2.3-2.9-15.5 5.3-31.5 20.4-37.7 17.4-7.2 37.3 1 44.5 18.4 3.7 8.8 3.3 18.3-0.1 26.4 8.2 3.3 15.2 9.7 18.8 18.6 7.2 17.4-1 37.3-18.4 44.5-14.2 5.9-30.1 1.5-39.4-9.8-2.4 2-5.2 3.6-8.2 4.9-17.4 7.2-37.3-1-44.5-18.4-7.2-17.4 1-37.4 18.4-44.6z" fill="#FBE06D" p-id="5205"></path><path d="M665.5 889.1c2.8-1.2 5.6-1.9 8.5-2.3-2.9-15.5 5.3-31.5 20.4-37.7 10.5-4.3 21.8-3.1 30.8 2.4-6.8-1.6-14.1-1.2-21 1.7-15.1 6.3-23.3 22.2-20.4 37.7-2.9 0.4-5.7 1.1-8.5 2.3-17.4 7.2-25.6 27.1-18.4 44.5 2.9 6.9 7.8 12.4 13.7 16-10.2-2.5-19.2-9.6-23.5-20.1-7.2-17.3 1-37.3 18.4-44.5z" fill="#FAE9A4" p-id="5206"></path><path d="M315 590a168.1 98.2 0 1 0 336.2 0 168.1 98.2 0 1 0-336.2 0Z" fill="#FFF6C5" p-id="5207"></path><path d="M425.6 598h-13.7l-5.5 27.7h-13.3l14.4-71.5h25.4c12.1 0 19.2 7.7 19.2 18.9-0.1 12.8-9.4 24.9-26.5 24.9z m5-32h-12.2l-4.1 20.3h11.8c8.6 0 12.5-6.6 12.5-12 0-4.6-2.1-8.3-8-8.3zM507.9 590c-2.7 13.8-4.6 21.9-10.9 28.2-5.3 5.3-13 8.1-20 8.1-13.5 0-21.5-9.2-21.5-20.3 0-3.2 0.7-8 2.2-16.1 2.7-13.8 4.6-21.9 10.9-28.2 5.3-5.3 12.9-8.1 19.9-8.1 13.6 0 21.6 9.2 21.6 20.3 0 3.2-0.7 8.1-2.2 16.1z m-20.3-24.7c-3.8 0-7.2 1.6-9.7 4.3-2.7 2.9-4.3 7.1-6.9 20.4-1.2 6.1-2.1 11.5-2.1 15.1 0 6.3 4.3 9.6 9.1 9.6 3.8 0 7.2-1.6 9.7-4.3 2.7-2.9 4.3-7.1 6.9-20.4 1.2-6.1 2-11.5 2-15.1 0-6.3-4.2-9.6-9-9.6zM546.8 598H533l-5.5 27.7h-13.3l14.4-71.5H554c12.1 0 19.2 7.7 19.2 18.9 0 12.8-9.3 24.9-26.4 24.9z m5-32h-12.2l-4.1 20.3h11.8c8.6 0 12.5-6.6 12.5-12 0-4.6-2.1-8.3-8-8.3z" fill="#ED593F" p-id="5208"></path><path d="M483.1 671.6c-84.9 0-154-36.6-154-81.6 0-45 69.1-81.6 154-81.6s154 36.6 154 81.6c0 45-69.1 81.6-154 81.6z m0-154.4c-78.2 0-141.8 32.7-141.8 72.8 0 40.1 63.6 72.8 141.8 72.8s141.8-32.7 141.8-72.8c0-40.1-63.6-72.8-141.8-72.8z" fill="#ED593F" p-id="5209"></path><path d="M662.9 671.9c-5.8-0.7-9.8-5.9-9.1-11.7l17.5-143c0.7-5.8 5.9-9.8 11.7-9.1 5.8 0.7 9.8 5.9 9.1 11.7l-17.5 143c-0.7 5.7-6 9.8-11.7 9.1z" fill="#FFFFFF" p-id="5210"></path></svg>