<?xml version="1.0" standalone="no"?><!DOCTYPE svg PUBLIC "-//W3C//DTD SVG 1.1//EN" "http://www.w3.org/Graphics/SVG/1.1/DTD/svg11.dtd"><svg t="1553165382183" class="icon" style="" viewBox="0 0 1027 1024" version="1.1" xmlns="http://www.w3.org/2000/svg" p-id="5651" xmlns:xlink="http://www.w3.org/1999/xlink" width="128.375" height="128"><defs><style type="text/css"></style></defs><path d="M444.6245926 819.84474075s505.40088889-18.31822222 572.18844445-164.63644445c86.35733333-189.32622222-319.94311111-286.03733333-474.90844445-284.44444445-154.96533333 1.59288889-97.28 449.08088889-97.28 449.0808889z" fill="#F0F0F0" p-id="5652"></path><path d="M-0.92918517 555.53896297a430.76266667 252.47288889 0 1 0 861.52533333 0 430.76266667 252.47288889 0 1 0-861.52533333 0Z" fill="#FCCF8A" p-id="5653"></path><path d="M30.35970372 556.10785185a399.47377778 234.26844445 0 1 0 798.94755555 0 399.47377778 234.26844445 0 1 0-798.94755555 0Z" fill="#FFF9B5" p-id="5654"></path><path d="M4.41837038 542.11318518a425.41511111 249.51466667 0 1 0 850.83022222 0 425.41511111 249.51466667 0 1 0-850.83022222 0Z" fill="#FFE1A5" p-id="5655"></path><path d="M532.57481483 323.88740741c148.70755555 37.888 252.35911111 127.20355555 246.67022222 225.05244444-7.05422222 122.19733333-181.70311111 211.28533333-390.03022222 199.2248889-83.28533333-4.89244445-159.28888889-25.14488889-220.16-55.63733334 68.72177778 41.75644445 165.09155555 67.81155555 271.92888889 67.81155556 208.66844445 0 377.74222222-99.21422222 377.74222221-221.52533334 0-103.87911111-121.74222222-190.91911111-286.1511111-214.92622222z" fill="#FFD191" p-id="5656"></path><path d="M24.7845926 548.02962963c0-134.48533333 185.91288889-243.48444445 415.17511112-243.48444445 227.55555555 0 412.33066667 107.40622222 415.06133333 240.52622223 0-1.024 0.11377778-2.048 0.11377778-2.95822223 0-137.78488889-190.464-249.51466667-425.41511111-249.51466666-234.95111111 0-425.41511111 111.72977778-425.41511112 249.51466666 0 137.78488889 190.464 249.51466667 425.41511112 249.51466667 1.70666667 0 3.41333333-0.11377778 5.12-0.11377777-226.87288889-1.59288889-410.05511111-109.90933333-410.05511112-243.48444445z" fill="#FFF8DA" p-id="5657"></path><path d="M429.8334815 792.53807408c-235.06488889 0-426.43911111-112.29866667-426.43911112-250.4248889 0-138.12622222 191.26044445-250.42488889 426.43911112-250.42488888S856.2725926 403.98696297 856.2725926 542.11318518c-0.11377778 138.12622222-191.37422222 250.42488889-426.4391111 250.4248889z m0-498.91555556c-234.04088889 0-424.50488889 111.50222222-424.5048889 248.49066666s190.464 248.49066667 424.5048889 248.49066667 424.50488889-111.50222222 424.50488888-248.49066667c-0.11377778-137.10222222-190.464-248.49066667-424.50488888-248.49066666z" fill="#FFE1A5" p-id="5658"></path><path d="M173.94725927 607.19407408c5.00622222 25.6 311.86488889 298.43911111 586.06933333 37.43288889 113.664-141.42577778-236.88533333-165.20533333-236.88533333-165.20533334l-325.06311111 77.02755555c0-0.11377778-29.01333333 25.25866667-24.12088889 50.7448889z" fill="#FFC664" p-id="5659"></path><path d="M150.05392593 540.74785185a279.77955555 164.06755555 0 1 0 559.55911112 0 279.77955555 164.06755555 0 1 0-559.55911112 0Z" fill="#A15500" p-id="5660"></path><path d="M709.49925927 540.74785185v-24.80355555s-15.58755555 7.50933333-15.36 8.07822222 15.36 16.72533333 15.36 16.72533333z" fill="#BC6400" p-id="5661"></path><path d="M150.05392593 515.9442963v24.80355555l4.89244445 14.79111112 9.216-26.28266667z" fill="#C56C00" p-id="5662"></path><path d="M704.60681483 485.33807408l-0.11377778-0.34133333c-1.13777778-3.64088889-2.50311111-7.168-4.096-10.69511112l-69.97333333-196.608-401.52177779 0.79644445L159.26992593 474.07407408c-1.59288889 3.64088889-2.95822222 7.28177778-4.20977777 11.03644444l-0.11377778 0.22755556c-3.18577778 9.89866667-4.89244445 20.13866667-4.89244445 30.60622222 0 90.56711111 125.26933333 164.06755555 279.77955557 164.06755555S709.49925927 606.62518518 709.49925927 515.9442963c0-10.46755555-1.70666667-20.70755555-4.89244444-30.60622222z" fill="#FFD320" p-id="5663"></path><path d="M159.15614816 475.21185185c-1.59288889 3.64088889-2.95822222 7.28177778-4.20977778 11.03644445l-0.11377778 0.22755555c-3.18577778 9.89866667-4.89244445 20.13866667-4.89244444 30.60622223 0 21.504 7.168 41.984 19.91111111 60.75733333l79.872-261.68888889-9.67111111-36.52266667h-11.15022223L159.15614816 475.21185185z" fill="#FFE87E" p-id="5664"></path><path d="M225.14725927 301.70074075a204.68622222 120.03555555 0 1 0 409.37244445 0 204.68622222 120.03555555 0 1 0-409.37244445 0Z" fill="#FFC200" p-id="5665"></path><path d="M239.02814816 296.46696297a194.10488889 114.80177778 0 1 0 388.20977777 0 194.10488889 114.80177778 0 1 0-388.20977777 0Z" fill="#FF8C00" p-id="5666"></path><path d="M470.67970372 195.54607408c-34.01955555 0-64.96711111 7.39555555-88.63288889 19.56977777 20.25244445-7.168 44.032-11.37777778 69.40444444-11.37777777 74.63822222 0 135.168 35.61244445 135.168 79.41688889 0 23.89333333-18.09066667 45.28355555-46.53511111 59.84711111 39.36711111-13.88088889 65.76355555-39.13955555 65.76355556-68.03911111 0-43.91822222-60.52977778-79.41688889-135.168-79.41688889z" fill="#FFB047" p-id="5667"></path><path d="M462.37392593 376.6802963c-91.02222222 0-164.864-43.69066667-164.864-97.50755555 0-51.42755555 67.47022222-93.52533333 152.91733334-97.16622223-3.98222222-0.11377778-7.85066667-0.34133333-11.94666667-0.34133334-104.22044445 0-188.75733333 49.94844445-188.75733333 111.616s84.53688889 111.616 188.75733333 111.616 188.75733333-49.94844445 188.75733333-111.616c0-2.38933333-0.34133333-4.66488889-0.56888888-7.05422221-6.144 50.63111111-77.25511111 90.45333333-164.29511112 90.45333333z" fill="#FFB047" p-id="5668"></path><path d="M253.7054815 376.6802963s27.07911111 30.60622222 68.608 36.864c41.41511111 6.25777778-59.61955555 24.576-68.608-36.864z" fill="#FFFFFF" p-id="5669"></path><path d="M363.50103705 667.38251852s50.176 13.88088889 91.81866667-1.13777777c46.64888889-16.83911111-56.43377778 0-95.34577779-14.56355557-23.89333333-8.87466667-27.07911111 8.192 3.52711112 15.70133334z" fill="#FFFFFF" p-id="5670"></path><path d="M285.33570372 266.99851852a18.20444445 11.60533333 0 1 0 36.40888888 0 18.20444445 11.60533333 0 1 0-36.40888888 0Z" fill="#FFFFFF" p-id="5671"></path><path d="M433.13303705 181.66518518c-1.59288889 0-3.072 0-4.66488889 0.11377779 102.28622222 0.79644445 184.77511111 49.94844445 184.77511111 110.592 0 61.09866667-83.74044445 110.70577778-187.16444444 110.70577778-102.51377778 0-185.79911111-48.81066667-187.05066667-109.34044445 0 0.91022222-0.11377778 1.82044445-0.11377778 2.73066667 0 63.37422222 86.92622222 114.80177778 194.10488889 114.80177778s194.10488889-51.42755555 194.10488889-114.80177778c0.11377778-63.37422222-86.69866667-114.80177778-193.99111111-114.80177779z" fill="#F06D00" p-id="5672"></path><path d="M429.71970372 422.64651852c-113.32266667 0-205.59644445-54.272-205.59644445-120.94577777s92.27377778-120.94577778 205.59644445-120.94577778 205.59644445 54.272 205.59644444 120.94577778-92.16 120.94577778-205.59644444 120.94577777z m0-240.07111111c-112.41244445 0-203.776 53.47555555-203.776 119.12533334s91.36355555 119.12533333 203.776 119.12533333 203.776-53.47555555 203.776-119.12533333-91.36355555-119.12533333-203.776-119.12533334z" fill="#FFFFFF" p-id="5673"></path><path d="M704.60681483 485.33807408l-0.11377778-0.34133333c-1.13777778-3.64088889-2.50311111-7.168-4.096-10.69511112l-62.80533333-176.24177778-4.096 3.6408889c0.91022222 0 150.98311111 354.98666667-234.72355556 377.2871111 10.12622222 0.68266667 20.48 1.024 30.94755556 1.024C584.34370372 680.01185185 709.49925927 606.62518518 709.49925927 515.9442963c0-10.46755555-1.70666667-20.70755555-4.89244444-30.60622222z" fill="#F8A200" p-id="5674"></path><path d="M613.35703705 690.47940741s-38.79822222-105.81333333-144.27022222-78.96177778c0 0.11377778 0.68266667 114.688 144.27022222 78.96177778z" fill="#69C23F" p-id="5675"></path><path d="M477.50637038 618.91318518s79.53066667 19.91111111 121.856 73.04533334c0 0-82.83022222-62.91911111-121.856-73.04533334z" fill="#61B43B" p-id="5676"></path><path d="M599.36237038 694.46162963s109.90933333-25.25866667 97.73511112-96.71111111c0 0-91.93244445-26.85155555-97.73511112 96.71111111z" fill="#70C545" p-id="5677"></path><path d="M606.53037038 685.35940741c-1.93422222 0 43.23555555-73.50044445 81.57866667-81.46488889 0 0-36.75022222 20.82133333-81.57866667 81.46488889z" fill="#6ABB41" p-id="5678"></path><path d="M584.11614816 686.04207408c-9.55733333 1.13777778-53.36177778 10.80888889-57.91288889 45.85244444 0 0 52.67911111 14.56355555 78.50666666-19.56977777 8.30577778-10.69511111 8.64711111-23.66577778 8.64711112-23.66577778-4.77866667-4.096-19.79733333-3.64088889-29.24088889-2.61688889z" fill="#75CF48" p-id="5679"></path><path d="M608.0094815 691.95851852s-26.96533333 18.54577778-76.45866667 36.52266666c0 0 50.85866667-11.49155555 76.45866667-36.52266666z" fill="#65BB3E" p-id="5680"></path></svg>